# xmcd
#
# Track frame offsets:
#	200
#	18002
#	46000
#	60095
#	92682
#	116447
#	147155
#	167787
#	191720
#	214745
#	229422
#	251777
#	268705
#	296615
#	311800
#
# Disc length: 4330 seconds
#
# Revision: 3
# Processed by: cddbd v1.5.1PL2 Copyright (c) Steve Scherf et al.
# Submitted via: audiograbber 1.83.01
#
DISCID=d210e80f
DTITLE=Various Artist - Rattlesnake Guitar - The Music of Peter Green Disc 1
DYEAR=1995
DGENRE=Blues
TTITLE0=Larry McCray - Black Magic Woman
TTITLE1=Dave Peverett - Rod Price - Love That Burns
TTITLE2=Savoy Brown - Kim Simmonds - Stop Messin' Round
TTITLE3=Snowy White - Looking For Somebody
TTITLE4=Luther Grosvenor - Mike Kellie - Jess Roden - Cryin' Won't Bring You Ba
TTITLE4=ck
TTITLE5=Rory Gallagher - Leaving Town Blues
TTITLE6=Dave Peverett - Rod Price - If You Be My Baby
TTITLE7=Harvey Mandel - Wilbur Bascomb - Ramblin' Pony
TTITLE8=Arthur Brown - The Green Manalishi
TTITLE9=Ken Hensley - Hellhounds On My Trail
TTITLE10=Larry Mitchell - Jay Aston - I Loved Another Woman
TTITLE11=Nick Abrahams - The Same Way
TTITLE12=Top Topham - Jim McCarty - Drifting
TTITLE13=Clas Yngstrom - The Supernatural
TTITLE14=Ian Anderson - Man of the World
EXTD=Viceroy Entertainment\nRecorded at various locations\n
EXTT0=
EXTT1=
EXTT2=
EXTT3=
EXTT4=
EXTT5=
EXTT6=
EXTT7=
EXTT8=
EXTT9=
EXTT10=
EXTT11=
EXTT12=
EXTT13=
EXTT14=
PLAYORDER=
